<svg xmlns="http://www.w3.org/2000/svg" viewBox="0 0 940 470" font-family="Verdana, Arial, sans-serif" role="img" aria-labelledby="t d">
  <title id="t">Le lampadaire solaire intelligent : fonctions techniques et solutions techniques</title>
  <desc id="d">Dessin d'un lampadaire solaire annoté. Chaque élément relie une fonction technique à sa solution : éclairer est assuré par le bloc de LED, capter l'énergie du soleil par le panneau solaire, stocker l'énergie par la batterie, détecter un passage par le détecteur de mouvement, mesurer la lumière du jour par le capteur de luminosité, décider par la petite carte électronique, tenir debout et résister au vent par le mât en acier galvanisé.</desc>
  <rect width="940" height="470" fill="#050f24"/>
  <text x="470" y="32" fill="#81aaff" font-size="20" font-weight="bold" text-anchor="middle">Le lampadaire solaire du parking : qui fait quoi ?</text>

  <!-- lampadaire -->
  <rect x="452" y="120" width="16" height="300" fill="#274a8a"/>
  <rect x="430" y="416" width="60" height="16" rx="4" fill="#274a8a"/>
  <!-- panneau -->
  <g transform="rotate(-20 460 108)">
    <rect x="400" y="86" width="120" height="44" rx="5" fill="#0d2347" stroke="#ffb454" stroke-width="3"/>
    <line x1="430" y1="86" x2="430" y2="130" stroke="#ffb454"/>
    <line x1="460" y1="86" x2="460" y2="130" stroke="#ffb454"/>
    <line x1="490" y1="86" x2="490" y2="130" stroke="#ffb454"/>
  </g>
  <!-- luminaire LED -->
  <rect x="360" y="150" width="100" height="26" rx="9" fill="#0d2347" stroke="#ffd66b" stroke-width="3"/>
  <g stroke="#ffd66b" stroke-width="2"><line x1="380" y1="182" x2="374" y2="196"/><line x1="410" y1="182" x2="410" y2="198"/><line x1="440" y1="182" x2="446" y2="196"/></g>
  <!-- capteurs -->
  <circle cx="486" cy="200" r="12" fill="#0d2347" stroke="#61dafb" stroke-width="2.5"/>
  <circle cx="486" cy="240" r="12" fill="#0d2347" stroke="#c68ef2" stroke-width="2.5"/>
  <!-- boîtier -->
  <rect x="432" y="288" width="56" height="70" rx="8" fill="#0d2347" stroke="#81fba1" stroke-width="2.5"/>
  <text x="460" y="316" fill="#81fba1" font-size="9" text-anchor="middle">carte</text>
  <text x="460" y="328" fill="#81fba1" font-size="9" text-anchor="middle">électro-</text>
  <text x="460" y="340" fill="#81fba1" font-size="9" text-anchor="middle">nique</text>
  <rect x="432" y="366" width="56" height="34" rx="8" fill="#0d2347" stroke="#ff7b88" stroke-width="2.5"/>
  <text x="460" y="387" fill="#ff7b88" font-size="9" text-anchor="middle">batterie</text>

  <!-- annotations gauche -->
  <g font-size="12" fill="#e4eaf5">
    <rect x="30" y="70" width="270" height="52" rx="10" fill="#173666" stroke="#ffb454" stroke-width="2"/>
    <text x="44" y="91"><tspan fill="#ffb454" font-weight="bold">FONCTION :</tspan> capter l'énergie du soleil</text>
    <text x="44" y="110"><tspan fill="#9bbefc">SOLUTION :</tspan> panneau solaire</text>
    <line x1="300" y1="96" x2="396" y2="100" stroke="#ffb454" stroke-width="1.5" stroke-dasharray="4 3"/>

    <rect x="30" y="140" width="270" height="52" rx="10" fill="#173666" stroke="#ffd66b" stroke-width="2"/>
    <text x="44" y="161"><tspan fill="#ffd66b" font-weight="bold">FONCTION :</tspan> éclairer le parking</text>
    <text x="44" y="180"><tspan fill="#9bbefc">SOLUTION :</tspan> bloc de LED</text>
    <line x1="300" y1="166" x2="356" y2="163" stroke="#ffd66b" stroke-width="1.5" stroke-dasharray="4 3"/>

    <rect x="30" y="210" width="270" height="52" rx="10" fill="#173666" stroke="#81fba1" stroke-width="2"/>
    <text x="44" y="231"><tspan fill="#81fba1" font-weight="bold">FONCTION :</tspan> décider d'allumer ou non</text>
    <text x="44" y="250"><tspan fill="#9bbefc">SOLUTION :</tspan> carte électronique</text>
    <line x1="300" y1="236" x2="428" y2="316" stroke="#81fba1" stroke-width="1.5" stroke-dasharray="4 3"/>

    <rect x="30" y="280" width="270" height="52" rx="10" fill="#173666" stroke="#ff7b88" stroke-width="2"/>
    <text x="44" y="301"><tspan fill="#ff7b88" font-weight="bold">FONCTION :</tspan> stocker l'énergie pour la nuit</text>
    <text x="44" y="320"><tspan fill="#9bbefc">SOLUTION :</tspan> batterie</text>
    <line x1="300" y1="306" x2="428" y2="380" stroke="#ff7b88" stroke-width="1.5" stroke-dasharray="4 3"/>
  </g>

  <!-- annotations droite -->
  <g font-size="12" fill="#e4eaf5">
    <rect x="620" y="150" width="290" height="52" rx="10" fill="#173666" stroke="#61dafb" stroke-width="2"/>
    <text x="634" y="171"><tspan fill="#61dafb" font-weight="bold">FONCTION :</tspan> mesurer la lumière du jour</text>
    <text x="634" y="190"><tspan fill="#9bbefc">SOLUTION :</tspan> capteur de luminosité</text>
    <line x1="618" y1="176" x2="500" y2="200" stroke="#61dafb" stroke-width="1.5" stroke-dasharray="4 3"/>

    <rect x="620" y="220" width="290" height="52" rx="10" fill="#173666" stroke="#c68ef2" stroke-width="2"/>
    <text x="634" y="241"><tspan fill="#c68ef2" font-weight="bold">FONCTION :</tspan> détecter un passage</text>
    <text x="634" y="260"><tspan fill="#9bbefc">SOLUTION :</tspan> détecteur de mouvement (PIR)</text>
    <line x1="618" y1="246" x2="500" y2="240" stroke="#c68ef2" stroke-width="1.5" stroke-dasharray="4 3"/>

    <rect x="620" y="290" width="290" height="52" rx="10" fill="#173666" stroke="#9bbefc" stroke-width="2"/>
    <text x="634" y="311"><tspan fill="#9bbefc" font-weight="bold">FONCTION :</tspan> tenir debout, résister au vent</text>
    <text x="634" y="330"><tspan fill="#9bbefc">SOLUTION :</tspan> mât en acier galvanisé</text>
    <line x1="618" y1="316" x2="470" y2="300" stroke="#9bbefc" stroke-width="1.5" stroke-dasharray="4 3"/>
  </g>

  <rect x="60" y="424" width="820" height="36" rx="10" fill="#173666" stroke="#274a8a"/>
  <text x="470" y="447" fill="#e4eaf5" font-size="12" text-anchor="middle">Une <tspan fill="#ffb454" font-weight="bold">fonction technique</tspan> = CE QUE l'objet doit faire · une <tspan fill="#61dafb" font-weight="bold">solution technique</tspan> = l'élément choisi POUR le faire.</text>
</svg>
